<svg width="203" height="52" viewBox="0 0 203 52" fill="none" xmlns="http://www.w3.org/2000/svg">
<path d="M19.5971 4.8473H24.0427C26.7501 4.45694 29.515 4.80015 32.0371 5.83966C35.2012 7.70285 37.4963 10.7024 38.4326 14.1984C39.0955 16.0304 39.0955 16.0304 40.6944 15.3816H41.9423V0.877858H0.0986626V3.4351H1.81453C2.56017 3.43004 3.29749 3.58855 3.97233 3.89898C4.64717 4.20941 5.24237 4.66387 5.71421 5.22898C7.31309 7.74805 7.58606 10.5725 7.58606 25.267C7.58606 40.8776 7.23509 44.6944 5.71421 46.641C5.33875 47.1414 4.85264 47.5523 4.29218 47.8431C3.73171 48.1339 3.11137 48.2971 2.47747 48.3204C0.0986626 48.7402 0.0986626 48.702 0.0986626 49.7326C-0.0328875 50.0772 -0.0328875 50.4566 0.0986626 50.8013H26.4996C26.6743 50.4641 26.7653 50.0915 26.7653 49.7135C26.7653 49.3355 26.6743 48.9628 26.4996 48.6257C25.8601 48.4516 25.2084 48.324 24.5497 48.244C23.8371 48.1611 23.1328 48.0207 22.4439 47.8242C21.4573 47.1192 20.6758 46.1745 20.1765 45.0834C19.6772 43.9923 19.4775 42.7926 19.5971 41.6028C19.2071 39.0838 19.0122 34.4655 19.0122 30.6487V27.6334H20.572C22.5155 27.5752 24.4577 27.7808 26.3436 28.2441C27.247 28.7905 28.016 29.5254 28.5958 30.3963C29.1755 31.2672 29.5516 32.2527 29.6973 33.2823L30.0483 34.4655H32.4271V17.5572H30.2433L29.8923 19.1984C29.7446 20.2513 29.3466 21.2556 28.7303 22.1306C28.114 23.0056 27.2965 23.7269 26.3436 24.2365C25.4207 24.5053 24.4485 24.5705 23.4968 24.4273H19.0122V20.3052C19.0122 16.0304 19.2461 7.02286 19.4021 5.61066L19.5971 4.8473ZM202.103 35.1143C200.259 32.2106 197.384 30.0763 194.03 29.122C191.459 28.3353 189.082 27.0358 187.05 25.3052C186.592 24.8723 186.25 24.3364 186.053 23.7443C185.856 23.1521 185.81 22.5218 185.919 21.9083C185.922 20.7048 186.413 19.5517 187.284 18.7022C187.874 18.0971 188.621 17.6603 189.445 17.4384C190.27 17.2166 191.14 17.2181 191.963 17.4427C193.668 17.9182 195.21 18.8362 196.425 20.0994C197.64 21.3626 198.483 22.924 198.866 24.6182C199.49 26.3357 199.568 26.3357 200.699 25.8777L201.401 25.6105V16.1068L200.894 15.8778C197.054 14.5581 192.982 14.0127 188.922 14.2747C185.425 14.3614 182.087 15.7225 179.562 18.0915C178.417 19.1407 177.52 20.4222 176.934 21.8463C176.348 23.2704 176.087 24.8026 176.17 26.3357C176.191 28.6797 177.142 30.9238 178.821 32.5952C180.677 34.3815 182.954 35.6924 185.451 36.412C191.495 38.7402 193.25 40.2288 193.25 42.9387C193.276 44.0815 192.904 45.1989 192.196 46.1075C191.487 47.0161 190.484 47.6618 189.351 47.9387C187.989 48.2315 186.579 48.2315 185.217 47.9387C183.434 47.2614 181.842 46.1774 180.574 44.7766C179.305 43.3758 178.397 41.6989 177.924 39.8853L177.417 38.6639H176.716C176.38 38.6883 176.051 38.7656 175.741 38.8929H175.351V49.7326H176.014C178.648 50.5904 181.366 51.1787 184.125 51.4883H188.025C189.716 51.6097 191.416 51.455 193.055 51.0303C195.136 50.6544 197.081 49.752 198.695 48.4129C200.31 47.0737 201.538 45.3444 202.258 43.3967C202.724 42.3089 202.963 41.141 202.96 39.9616C203.114 38.3002 202.818 36.6284 202.103 35.1143ZM165.367 15.3816C163.031 14.4213 160.513 13.9555 157.979 14.0147C155.445 14.0739 152.953 14.6568 150.666 15.7251C148.516 16.7544 146.61 18.2136 145.072 20.0083C143.534 21.8031 142.397 23.8936 141.735 26.1449C140.892 28.6008 140.534 31.1916 140.682 33.7784C140.654 35.1859 140.772 36.5926 141.033 37.9769C141.663 41.3807 143.342 44.5144 145.845 46.957C148.347 49.3996 151.554 51.0341 155.033 51.6409C157.299 51.9203 159.592 51.9203 161.858 51.6409C164.209 51.2353 166.459 50.3932 168.487 49.16C170.165 48.2396 171.584 46.9287 172.621 45.3433C172.554 45.0945 172.437 44.8615 172.276 44.6581C172.115 44.4548 171.914 44.2854 171.685 44.1601C171.24 44.3178 170.82 44.5362 170.437 44.8089C168.497 46.0601 166.207 46.6872 163.886 46.6028C162.345 46.7047 160.8 46.47 159.363 45.9154C157.927 45.3609 156.634 44.5006 155.579 43.3967C154.763 42.6548 154.09 41.7758 153.59 40.8013C152.379 38.4285 151.726 35.8201 151.68 33.1678V31.6792H173.284V30.9159C173.332 30.1532 173.332 29.3884 173.284 28.6258C173.276 25.9308 172.54 23.2858 171.149 20.9596C169.759 18.6334 167.764 16.7089 165.367 15.3816ZM154.487 28.5876H151.758V26.3357C152.654 20.5724 154.877 17.1373 157.607 17.1373C160.337 17.1373 161.507 20.5342 162.014 26.7556V28.5113H159.674L154.487 28.5876ZM98.4098 14.1221C97.0623 14.0709 95.7228 14.3462 94.5101 14.9236C91.8744 16.1764 89.7456 18.2599 88.4656 20.8396L87.9586 21.7556V14.1221H87.7637C87.2957 14.1221 72.8669 16.9465 72.3989 17.1373C71.9309 17.3282 72.0869 17.3663 72.0869 18.0533C72.0869 18.7404 72.0869 18.8549 72.3989 18.893L73.9198 19.1984C74.3457 19.2086 74.7637 19.3136 75.1421 19.5053C75.5204 19.6971 75.8493 19.9707 76.1036 20.3052C77.0785 21.5648 77.2735 23.7785 77.2735 33.2059C77.4661 37.45 77.2834 41.7025 76.7275 45.9158C76.5967 46.5511 76.2675 47.131 75.7855 47.5754C75.3036 48.0197 74.6925 48.3067 74.0368 48.3967L72.7109 48.6639H72.2039V49.7326C72.0624 50.0885 72.0624 50.4835 72.2039 50.8394H94.0032V49.7326C94.0788 49.3673 94.0788 48.9909 94.0032 48.6257C92.6907 48.5756 91.3854 48.4096 90.1035 48.1295C89.4054 47.7721 88.8342 47.2161 88.4653 46.5348C88.0964 45.8535 87.9469 45.0788 88.0366 44.3127C87.7247 42.099 87.5687 35.6105 87.6467 30.6487C87.7247 25.6869 87.6467 25.3815 88.0756 25.038C89.3806 24.0588 90.9953 23.559 92.6383 23.6258C94.1869 23.6589 95.7074 24.0374 97.0839 24.7327C97.5611 24.992 98.073 25.1848 98.6048 25.3052C98.6048 25.3052 102.504 16.0686 102.504 15.6488C102.005 15.0812 101.37 14.6444 100.655 14.3778C99.9398 14.1112 99.1682 14.0233 98.4098 14.1221ZM72.1259 30.1525C71.9898 27.4251 71.1897 24.7689 69.7924 22.4054C68.395 20.0419 66.4408 18.0394 64.0926 16.5648C61.3019 15.0913 58.1972 14.2789 55.0276 14.1927C51.858 14.1065 48.7119 14.749 45.842 16.0686C41.7843 18.1628 38.7207 21.7227 37.3017 25.9922C35.8361 30.7724 35.8361 35.8685 37.3017 40.6486C38.07 43.2611 39.5061 45.6388 41.4744 47.557C43.9257 49.898 47.0865 51.398 50.4826 51.8318C52.6627 52.0102 54.8541 52.0102 57.0341 51.8318C57.8363 51.7123 58.6306 51.5466 59.4129 51.3356C62.5871 50.4665 65.4428 48.7307 67.6459 46.3312C69.8489 43.9316 71.3082 40.9677 71.8529 37.7861C72.2422 35.2602 72.3338 32.6989 72.1259 30.1525ZM55.9032 49.2364C52.0035 50.3814 49.0788 46.6791 48.1038 38.8929C47.7458 34.8165 47.7458 30.7175 48.1038 26.6411C48.8838 20.3816 50.8726 17.2136 53.9534 17.2136C54.5749 17.1759 55.1966 17.2845 55.7666 17.5302C56.3365 17.7759 56.838 18.1516 57.2291 18.6259C59.8419 21.1831 61.1288 26.2594 61.1288 33.8929C61.4533 38.2131 60.7595 42.5485 59.1009 46.5646C58.3686 47.7359 57.2355 48.615 55.9032 49.0455V49.2364ZM126.098 14.8854C124.997 14.7468 123.883 14.7468 122.783 14.8854C120.671 14.8837 118.583 15.3262 116.66 16.1831L115.451 16.6793V8.3969C115.663 5.60175 115.663 2.79515 115.451 0C114.983 0 100.087 2.78624 99.8527 2.90075C99.7377 3.18254 99.7377 3.49681 99.8527 3.77861C99.8527 4.58013 99.8527 4.54196 101.608 4.92364C102.1 5.03178 102.574 5.21192 103.011 5.45799C103.773 6.15859 104.279 7.08331 104.454 8.09156C104.898 10.9962 105.042 13.9373 104.883 16.8701V50.3814L105.936 50.6104C107.496 50.9539 111.903 51.6791 113.346 51.8318C116.227 52.0561 119.122 52.0561 122.003 51.8318C125.201 51.5121 128.249 50.3443 130.819 48.4544C133.389 46.5645 135.384 44.024 136.588 41.1066C137.305 39.2343 137.803 37.2878 138.07 35.3052C138.302 32.6195 138.21 29.9165 137.797 27.2518C137.378 24.2648 136.031 21.4761 133.939 19.2639C131.846 17.0517 129.108 15.5231 126.098 14.8854ZM115.88 48.5875C115.88 48.0913 115.49 31.3739 115.568 24.6945V19.4655L116.699 19.1984C117.462 19.0914 118.237 19.0914 119 19.1984C119.844 19.1144 120.693 19.302 121.418 19.7327C122.874 20.7164 124.084 22.0107 124.955 23.518C125.826 25.0254 126.337 26.7065 126.449 28.435C126.733 31.2143 126.733 34.0144 126.449 36.7937C126.215 40.8332 124.625 44.6841 121.925 47.7478C121.159 48.4602 120.196 48.9378 119.156 49.1219C118.369 49.2558 117.564 49.2558 116.777 49.1219C116.036 49.1219 116.036 48.8929 116.036 48.5875H115.88Z" fill="white"/>
</svg>
